<?xml version="1.0" encoding="utf-8"?>
<svg
  version="1.1"
  xmlns="http://www.w3.org/2000/svg"
  xmlns:xlink="http://www.w3.org/1999/xlink"
  x="0px"
  y="0px"
  viewBox="0 0 1000 1000"
  style="enable-background: new 0 0 1000 1000"
  xml:space="preserve"
>
  <style type="text/css">
    .st0 {
      fill: url(#_x36__1_);
      stroke: #000000;
      stroke-miterlimit: 10;
    }
    .st1 {
      fill: url(#_x35__1_);
      stroke: #000000;
      stroke-miterlimit: 10;
    }
    .st2 {
      fill: url(#_x34__1_);
      stroke: #000000;
      stroke-miterlimit: 10;
    }
    .st3 {
      fill: url(#_x33__1_);
      stroke: #000000;
      stroke-miterlimit: 10;
    }
    .st4 {
      fill: url(#_x32__1_);
      stroke: #000000;
      stroke-miterlimit: 10;
    }
    .st5 {
      fill: url(#_x31__2_);
      stroke: #000000;
      stroke-miterlimit: 10;
    }
    .st6 {
      fill: #ffffff;
    }
  </style>
  <linearGradient id="_x36__1_" gradientUnits="userSpaceOnUse" x1="711.1055" y1="552.645" x2="937.6062" y2="881.1621">
    <stop offset="0" style="stop-color: #00c8ff" />
    <stop offset="1" style="stop-color: #00ffff" />
  </linearGradient>
  <path
    id="_x36_"
    class="st0"
    d="M890.3,901.8h-132c-35.2,0-64-28.8-64-64v-242c0-35.2,28.8-64,64-64h132c35.2,0,64,28.8,64,64v242
	C954.3,873,925.5,901.8,890.3,901.8z"
  />
  <linearGradient id="_x35__1_" gradientUnits="userSpaceOnUse" x1="387.1056" y1="552.645" x2="613.6062" y2="881.1621">
    <stop offset="0" style="stop-color: #00b4ff" />
    <stop offset="1" style="stop-color: #00f0ff" />
  </linearGradient>
  <path
    id="_x35_"
    class="st1"
    d="M566.3,901.8h-132c-35.2,0-64-28.8-64-64v-242c0-35.2,28.8-64,64-64h132c35.2,0,64,28.8,64,64v242
	C630.3,873,601.5,901.8,566.3,901.8z"
  />
  <linearGradient id="_x34__1_" gradientUnits="userSpaceOnUse" x1="63.1056" y1="552.645" x2="289.6062" y2="881.1621">
    <stop offset="0" style="stop-color: #00a0ff" />
    <stop offset="1" style="stop-color: #00dcff" />
  </linearGradient>
  <path
    id="_x34_"
    class="st2"
    d="M242.3,901.8h-132c-35.2,0-64-28.8-64-64v-242c0-35.2,28.8-64,64-64h132c35.2,0,64,28.8,64,64v242
	C306.3,873,277.5,901.8,242.3,901.8z"
  />
  <linearGradient id="_x33__1_" gradientUnits="userSpaceOnUse" x1="710.6055" y1="119.145" x2="937.1062" y2="447.6621">
    <stop offset="0" style="stop-color: #00a0ff" />
    <stop offset="1" style="stop-color: #00dcff" />
  </linearGradient>
  <path
    id="_x33_"
    class="st3"
    d="M889.8,468.3h-132c-35.2,0-64-28.8-64-64v-242c0-35.2,28.8-64,64-64h132c35.2,0,64,28.8,64,64v242
	C953.8,439.5,925,468.3,889.8,468.3z"
  />
  <linearGradient id="_x32__1_" gradientUnits="userSpaceOnUse" x1="386.7306" y1="119.02" x2="613.2312" y2="447.5371">
    <stop offset="0" style="stop-color: #008cff" />
    <stop offset="1" style="stop-color: #00c8ff" />
  </linearGradient>
  <path
    id="_x32_"
    class="st4"
    d="M565.9,468.1h-132c-35.2,0-64-28.8-64-64v-242c0-35.2,28.8-64,64-64h132c35.2,0,64,28.8,64,64v242
	C629.9,439.3,601.1,468.1,565.9,468.1z"
  />
  <linearGradient id="_x31__2_" gradientUnits="userSpaceOnUse" x1="62.4806" y1="119.145" x2="288.9812" y2="447.6621">
    <stop offset="0" style="stop-color: #0078ff" />
    <stop offset="1" style="stop-color: #00b4ff" />
  </linearGradient>
  <path
    id="_x31__1_"
    class="st5"
    d="M241.6,468.3h-132c-35.2,0-64-28.8-64-64v-242c0-35.2,28.8-64,64-64h132c35.2,0,64,28.8,64,64
	v242C305.6,439.5,276.8,468.3,241.6,468.3z"
  />
  <circle class="st6" cx="176" cy="283" r="84" />
  <circle class="st6" cx="499.9" cy="283.1" r="84" />
  <circle class="st6" cx="823.8" cy="283.3" r="84" />
  <circle class="st6" cx="176.3" cy="716.8" r="84" />
  <circle class="st6" cx="500.3" cy="716.8" r="84" />
  <circle class="st6" cx="824.3" cy="716.8" r="84" />
</svg>
